<?xml version="1.0" encoding="UTF-8"?>
<svg width="343pt" height="340pt" version="1.1" xmlns="http://www.w3.org/2000/svg" xmlns:xlink="http://www.w3.org/1999/xlink">
 <defs>
  <filter id="k" x="-.21897" y="-.11179" width="1.4379" height="1.2236" color-interpolation-filters="sRGB">
   <feGaussianBlur stdDeviation="1.0892571"/>
  </filter>
  <filter id="l" x="-.25753" y="-.062386" width="1.5151" height="1.1248" color-interpolation-filters="sRGB">
   <feGaussianBlur stdDeviation="1.0550004"/>
  </filter>
  <filter id="o" x="-.17262" y="-.14667" width="1.3452" height="1.2933" color-interpolation-filters="sRGB">
   <feGaussianBlur stdDeviation="1.0068445"/>
  </filter>
  <filter id="n" x="-.16369" y="-.078078" width="1.3274" height="1.1562" color-interpolation-filters="sRGB">
   <feGaussianBlur stdDeviation="0.95093764"/>
  </filter>
  <filter id="m" x="-.14642" y="-.032254" width="1.2928" height="1.0645" color-interpolation-filters="sRGB">
   <feGaussianBlur stdDeviation="0.94948635"/>
  </filter>
  <filter id="p" color-interpolation-filters="sRGB">
   <feGaussianBlur stdDeviation="1.3973494"/>
  </filter>
  <filter id="q" x="-.19046" y="-.17988" width="1.3809" height="1.3598" color-interpolation-filters="sRGB">
   <feGaussianBlur stdDeviation="1.4340032"/>
  </filter>
  <filter id="j" x="-.22186" y="-.05225" width="1.4437" height="1.1045" color-interpolation-filters="sRGB">
   <feGaussianBlur stdDeviation="0.52066872"/>
  </filter>
  <filter id="g" x="-.21395" y="-.1328" width="1.4279" height="1.2656" color-interpolation-filters="sRGB">
   <feGaussianBlur stdDeviation="0.85279293"/>
  </filter>
  <filter id="e" x="-.21395" y="-.1328" width="1.4279" height="1.2656" color-interpolation-filters="sRGB">
   <feGaussianBlur stdDeviation="0.85279293"/>
  </filter>
  <filter id="i" x="-.21395" y="-.1328" width="1.4279" height="1.2656" color-interpolation-filters="sRGB">
   <feGaussianBlur stdDeviation="0.85279293"/>
  </filter>
  <filter id="d" x="-.21395" y="-.1328" width="1.4279" height="1.2656" color-interpolation-filters="sRGB">
   <feGaussianBlur stdDeviation="0.85279293"/>
  </filter>
  <filter id="h" x="-.21395" y="-.1328" width="1.4279" height="1.2656" color-interpolation-filters="sRGB">
   <feGaussianBlur stdDeviation="0.85279293"/>
  </filter>
  <filter id="c" x="-.21395" y="-.1328" width="1.4279" height="1.2656" color-interpolation-filters="sRGB">
   <feGaussianBlur stdDeviation="0.85279293"/>
  </filter>
  <filter id="f" x="-.21395" y="-.1328" width="1.4279" height="1.2656" color-interpolation-filters="sRGB">
   <feGaussianBlur stdDeviation="0.85279293"/>
  </filter>
  <linearGradient id="b" x1="300.34" x2="335.07" y1="375.57" y2="375.57" gradientTransform="matrix(1.2074 0 0 1.1678 -153.92 -291.25)" gradientUnits="userSpaceOnUse">
   <stop stop-color="#e2be1c" offset="0"/>
   <stop stop-color="#e6bf6b" offset=".125"/>
   <stop stop-color="#f4ec8f" offset="1"/>
  </linearGradient>
  <linearGradient id="a" x1="314.66" x2="356.05" y1="344.72" y2="344.72" gradientTransform="matrix(1.2074 0 0 1.1678 -153.92 -291.25)" gradientUnits="userSpaceOnUse">
   <stop stop-color="#52c4ec" offset="0"/>
  </linearGradient>
 </defs>
 <path d="m92.719 390.41 293.64-160.72 1.2188-198.48-100.92 40.191c2.2931 145.45-124.71 159.42-208.71 217.12z" fill="#3f8916"/>
 <path d="m316.12 20.476-99.796 33.355 74.194 16.864-76.119-16.791 3.207 118.53 62.748 64.407c22.56-28.957 15.568-45.321 11.694-57.582l-1.2828-109.12 97.079-39.121z" fill="#3bda4a"/>
 <path d="m70.66 289.13c2.8972 38.412 55.21 20.87 84.058 20.481 5.2909 18.985 34.241 39.604 62.883 60.202-31.603 22.561-91.655 34.931-169.4 40.962-48.943-52.964-5.053-44.782 22.458-121.65z" fill="#f4c719"/>
 <path d="m77.718 312.09c-34.557 61.353-51.55 45.282-31.441 78.821 2.4267-13.286 13.622-40.721 31.441-78.821z" fill="#1989f4"/>
 <path d="m102.1 320.16c-24.993 21.014-33.572 54.931-38.5 80.683 10.48 1.8098 20.961-1.3181 31.441-4.3445-2.2935-28.143 0.81009-53.153 7.0583-76.339z" fill="#1989f4"/>
 <path d="m125.2 320.16c-10.185 11.018-23.656 36.662-5.1333 66.408 9.8441-0.61555 18.593-2.2907 25.025-6.2064-9.6765-12.702-20.152-23.472-19.892-60.202z" fill="#1989f4"/>
 <path d="m148.94 313.95c-0.86873 25.039 3.5483 47.521 23.1 62.685 13.488 0.73018 17.061-3.3344 24.383-5.5858-16.589-16.64-37.044-21.128-47.483-57.099z" fill="#1989f4"/>
 <path d="m227.87 154.45c-38.476 21.699-79.159 27.515-132.82 44.065-44.715 33.829-37.884 125.77 41.708 109.85l143.73-71.374c15.395-54.09-19.775-80.932-52.616-82.545z" fill="#ce0b1b"/>
 <path transform="matrix(1.6485 0 0 1.2446 -271.03 -325.95)" d="m262.54 467.76a27.636 40.391 0 1 1 -55.272 0 27.636 40.391 0 1 1 55.272 0z" fill="#7c0606" fill-rule="evenodd"/>
 <path d="m166.91 244.44c40.642-10.545 77.855-41.583 109.08-50.272" fill="none"/>
 <path d="m227.23 68.802 48.125 9.3096v75.718l-48.766-13.033z" fill="url(#a)"/>
 <path d="m223.73 170.9c0 3.929 7.457 4.7304 8.9474 1.0861 0.59052-7.6508-6.7474-11.685-8.9474-1.0861z" fill="#b09414"/>
 <path d="m250.17 164.07 6.577 0.31032c-3.3824-17.959 2.9878-44.982-20.373-44.376l-0.64166 5.8961c2.2327 0.66656 14.348-4.2825 14.117 38.945" fill="#b09414"/>
 <path transform="matrix(1.2074 0 0 1.1678 -153.92 -291.25)" d="m322.99 354.09a3.9859 4.1852 0 1 1 -7.9719 0 3.9859 4.1852 0 1 1 7.9719 0z" fill="#f3e31e" fill-rule="evenodd"/>
 <path transform="matrix(1.2074 0 0 1.1678 -153.92 -291.25)" d="m348.11 427.37a2.1258 2.6573 0 1 1 -4.2517 0 2.1258 2.6573 0 1 1 4.2517 0z" fill="#36b1b5" fill-rule="evenodd"/>
 <path transform="matrix(1.2074 0 0 1.1678 -194.99 -272.01)" d="m348.11 427.37a2.1258 2.6573 0 1 1 -4.2517 0 2.1258 2.6573 0 1 1 4.2517 0z" fill="#36b1b5" fill-rule="evenodd"/>
 <path transform="matrix(1.2074 0 0 1.1678 -238.62 -251.53)" d="m348.11 427.37a2.1258 2.6573 0 1 1 -4.2517 0 2.1258 2.6573 0 1 1 4.2517 0z" fill="#36b1b5" fill-rule="evenodd"/>
 <path d="m127.77 199.14c-12.197-60.662-32.725-94.958-32.725-94.958 8.3877-9.4273 16.882-18.648 26.95-24.826 43.99-15.999 63.65-1.3212 68.658 5.5858 7.6575 8.8547 16.519 18.874 27.592 31.032-5.4344 14.809-37.619 58.727-56.466 88.131-9.3372 2.2117-18.056 5.6191-34.008-4.9651z" fill="#bec2be"/>
 <path d="m121.99 80.594c24.798 13.752 47.371 11.231 70.583 6.827-6.0436-7.5503-13.946-13.902-30.158-14.895-9.4797 0.09389-24.145-1.3837-40.425 8.0683z" fill="#4a8bf0"/>
 <path d="m136.11 191.69c-5.9166-29.17-12.879-51.513-26.95-77.58 8.4806 3.8681 10.566 6.8514 16.042 7.758 9.5461 29.17 9.9159 40.652 10.908 69.822z" fill="#2d70ee"/>
 <path d="m143.12 127.14c5.9538 1.5306 11.073 3.9682 19.043 2.7929l-18.957 65.477 0.0918-1.2413z" fill="#2d70ee"/>
 <path d="m178.54 129.46c6.0069-0.14839 11.587-2.1997 17.689-3.9883-7.4388 25.931-21.345 41.801-40.837 68.735 12.025-25.882 18.046-40.133 23.147-64.747z" fill="#2d70ee"/>
 <path d="m210.54 160.81c-3.9959-9.0477 2.6083-14.28 6.577-21.722 1.6103-8.8728 3.6172-12.477 12.673-12.413 10.182-0.64914 10.315 8.8804 11.229 13.033 2.6516 10.323 10.255 16.94 8.8229 22.498-14.922 9.4154-30.657 6.2458-39.302-1.3964z" fill="url(#b)"/>
 <g transform="matrix(1.1957 .16186 -.16734 1.1565 -104.13 -343.32)" fill-rule="evenodd">
  <path d="m468.75 440.92c0 24.215-14.158 43.845-31.622 43.845s-31.622-19.63-31.622-43.845c0-24.215 14.158-43.845 31.622-43.845s31.622 19.63 31.622 43.845z" fill="#b09414"/>
  <path transform="translate(3.986 -.79718)" d="m468.75 440.92c0 24.215-14.158 43.845-31.622 43.845s-31.622-19.63-31.622-43.845c0-24.215 14.158-43.845 31.622-43.845s31.622 19.63 31.622 43.845z" fill="#f0ed4a"/>
 </g>
 <path transform="matrix(.53546 0 0 .52374 -22.238 88.613)" d="m468.75 440.92a31.622 43.845 0 1 1 -63.244 0 31.622 43.845 0 1 1 63.244 0z" fill="#b09414" fill-rule="evenodd"/>
 <g transform="matrix(1.2037 .090714 -.093787 1.1643 -127.66 -313.67)" fill-rule="evenodd">
  <path transform="matrix(.4435 0 0 .44848 177.03 290.47)" d="m468.75 440.92c0 24.215-14.158 43.845-31.622 43.845s-31.622-19.63-31.622-43.845c0-24.215 14.158-43.845 31.622-43.845s31.622 19.63 31.622 43.845z" fill="#b09414"/>
  <path transform="matrix(.4435 0 0 .44848 180.28 290.21)" d="m468.75 440.92c0 24.215-14.158 43.845-31.622 43.845s-31.622-19.63-31.622-43.845c0-24.215 14.158-43.845 31.622-43.845s31.622 19.63 31.622 43.845z" fill="#f0ed4a"/>
 </g>
 <path transform="matrix(.53396 .038717 -.040479 .52228 .11428 72.335)" d="m468.75 440.92a31.622 43.845 0 1 1 -63.244 0 31.622 43.845 0 1 1 63.244 0z" fill="#f0ed4a" fill-rule="evenodd"/>
 <path transform="matrix(1.1553 .034846 -.065855 2.2831 -83.312 -583.95)" d="m254.57 289.19a31.09 5.3146 0 1 1 -62.181 0 31.09 5.3146 0 1 1 62.181 0z" fill="#3bda4a" fill-rule="evenodd"/>
 <path transform="matrix(1.2074 0 0 1.1678 -153.92 -291.25)" d="m172.06 550.4c-0.82769 1.8849-10.786 6.7245-9.9648 23.384-4.9234-4.8545-0.28032-15.686 9.9648-23.384z" fill="#fdb409" filter="url(#k)"/>
 <g transform="matrix(1.2074 0 0 1.1678 -74.035 -317.32)" fill="#e5a430">
  <path transform="translate(-61.118 17.538)" d="m226.72 454.83c0 8.0717-4.164 14.615-9.3005 14.615-5.1365 0-9.3005-6.5434-9.3005-14.615 0-8.0717 4.164-14.615 9.3005-14.615 5.1366 0 9.3005 6.5434 9.3005 14.615z"/>
  <path transform="matrix(.74286 0 0 .74545 -5.2087 133.31)" d="m226.72 454.83c0 8.0717-4.164 14.615-9.3005 14.615-5.1365 0-9.3005-6.5434-9.3005-14.615 0-8.0717 4.164-14.615 9.3005-14.615 5.1366 0 9.3005 6.5434 9.3005 14.615z"/>
 </g>
 <g transform="matrix(1.2074 0 0 1.1678 -76.602 -317.01)">
  <path transform="translate(-61.118 17.538)" d="m226.72 454.83c0 8.0717-4.164 14.615-9.3005 14.615-5.1365 0-9.3005-6.5434-9.3005-14.615 0-8.0717 4.164-14.615 9.3005-14.615 5.1366 0 9.3005 6.5434 9.3005 14.615z" fill="#f0ed4a"/>
  <path transform="matrix(.74286 0 0 .74545 -5.2087 133.31)" d="m226.72 454.83c0 8.0717-4.164 14.615-9.3005 14.615-5.1365 0-9.3005-6.5434-9.3005-14.615 0-8.0717 4.164-14.615 9.3005-14.615 5.1366 0 9.3005 6.5434 9.3005 14.615z" fill="#fdb409"/>
 </g>
 <path transform="matrix(1.2074 0 0 1.1678 -153.92 -291.25)" d="m194.25 588.93c10.117 2.7785 9.315-24.795 9.832-40.391-3.1 13.641-1.0214 32.461-9.832 40.391z" fill="#fdb409" filter="url(#l)"/>
 <path transform="matrix(1.2074 0 0 1.1678 -153.92 -291.25)" d="m269.18 552.26c10.316 9.4629 21.719 12.773 6.909 16.475 4.4104-4.526-3.9234-11.499-6.909-16.475z" fill="#fdb409" filter="url(#o)"/>
 <path transform="matrix(1.2074 0 0 1.1678 -153.92 -291.25)" d="m235.7 576.97c16.406-3.3654 5.4744-1.6377-5.5803-29.23 7.6529 26.143 14.236 22.607 5.5803 29.23z" fill="#fdb409" filter="url(#n)"/>
 <rect transform="matrix(.93462 -.35565 -.012275 .99992 0 0)" x="338.48" y="200.63" width="62.342" height="92.057" fill="#891616" fill-opacity=".37019" fill-rule="evenodd"/>
 <path transform="matrix(1.2074 0 0 1.1678 -153.92 -291.25)" d="m251.78 431.54c12.025 7.3896 26.493 48.999 3.0064 70.65" fill="none" filter="url(#m)" opacity=".93274"/>
 <path transform="matrix(-1.1476 -.36283 .37512 -1.11 196.83 857.04)" d="m190.91 457.85c9.2042 56.916 39.424 48.893 42.841 45.096-16.823 5.186-35.418-25.033-42.841-45.096z" fill="#dd2919" filter="url(#p)"/>
 <path transform="matrix(.82634 .14554 .36318 1.8989 -164.69 -580.9)" d="m283.27 331.17 15.412 17.538-7.9719 1.5944-10.098-15.944z" fill="#faf3f3" filter="url(#q)" opacity=".52018"/>
 <path d="m351.07 191.69c34.65 11.792 27.592 47.789 27.592 47.789-3.455-23.705-15.856-35.297-27.592-47.789z" fill="#faf3f3" opacity=".78924"/>
 <path d="m272.78 269.27c18.45 6.2789 14.692 25.446 14.692 25.446-1.8397-12.622-8.4428-18.794-14.692-25.446z" fill="#faf3f3" opacity=".84305"/>
 <path d="m211.83 301.54c18.45 6.2789 14.692 25.446 14.692 25.446-1.8397-12.622-8.4428-18.794-14.692-25.446z" fill="#faf3f3" opacity=".84305"/>
 <path transform="matrix(1.2074 0 0 1.1678 -153.92 -291.25)" d="m323.13 363.06c-3.4626 10.252 4.7831 16.659 4.7831 23.916" fill="none" filter="url(#j)" opacity=".9148"/>
 <path transform="matrix(1.2074 0 0 1.1678 -153.92 -291.25)" d="m416.66 314.7 9.5663 15.412" fill="none" filter="url(#g)" opacity=".50673"/>
 <path transform="matrix(1.2543 0 0 1.136 -180.38 -277.94)" d="m415.07 322.93 9.5663 15.412" fill="none" filter="url(#e)" opacity=".50673"/>
 <path transform="matrix(2.7575 0 0 2.6951 -790.54 -825.89)" d="m404.44 341.54 9.5663 15.412" fill="none" filter="url(#i)" opacity=".50673"/>
 <path transform="matrix(1.2074 0 0 1.1678 -153.92 -291.25)" d="m341.2 320.81 9.5663 15.412" fill="none" filter="url(#d)" opacity=".50673"/>
 <path transform="matrix(1.2074 0 0 1.1678 -153.92 -291.25)" d="m331.63 328.78 9.5663 15.412" fill="none" filter="url(#h)" opacity=".50673"/>
 <path transform="matrix(1.2074 0 0 1.1678 -153.92 -291.25)" d="m325.25 337.28 9.5663 15.412" fill="none" filter="url(#c)" opacity=".50673"/>
 <path transform="matrix(1.2543 0 0 1.136 -199.95 -240.39)" d="m415.07 322.93 9.5663 15.412" fill="none" filter="url(#f)" opacity=".50673"/>
 <path d="m164.21 243.89c40.642-10.545 77.855-41.583 109.08-50.272v0" fill="none" stroke="#000" stroke-linecap="round" stroke-linejoin="round" stroke-opacity=".36364" stroke-width="5.85"/>
</svg>
